<svg width="50" height="23" viewBox="0 0 50 23" fill="none" xmlns="http://www.w3.org/2000/svg">
    <path
        d="M3.28283 18.751H7.84142V16.6676H3.28283C2.92031 16.6676 2.58071 16.5113 2.35361 16.2405C2.13277 15.978 2.0411 15.6488 2.09735 15.3175L2.43695 13.3195C2.81197 11.1048 4.65999 9.36302 6.93303 9.08384L9.94778 8.46922C11.1958 8.21295 12.3667 7.73168 13.4271 7.03581L18.3899 3.78354C20.0858 2.67098 22.061 2.08345 24.1007 2.08345H32.5699C33.972 2.08345 35.3617 2.53764 36.4826 3.36477L38.9869 5.21071C40.187 6.09617 41.5975 6.71704 43.0684 7.00456L46.8915 7.75668C47.4853 7.87543 47.9166 8.38588 47.9166 8.97133V14.7091C47.9166 15.7884 47.0144 16.6676 45.9081 16.6676H43.7497V18.751H45.9081C48.1645 18.751 50 16.9384 50 14.7112V8.97341C50 7.39416 48.8624 6.02325 47.2957 5.71698L43.4726 4.96486C42.3017 4.73568 41.1787 4.2419 40.2245 3.5377L37.7181 1.68759C36.2409 0.600033 34.4137 0 32.5699 0H24.1027C21.6547 0 19.2858 0.704206 17.2482 2.0397L12.2854 5.29196C11.4479 5.84199 10.5187 6.22326 9.53109 6.42535L6.59968 7.02747C3.50159 7.40458 0.911869 9.85263 0.384754 12.9695L0.0451546 14.9654C-0.11319 15.9009 0.149323 16.853 0.763943 17.5822C1.38689 18.326 2.30569 18.751 3.28283 18.751Z"
        fill="white" />
    <path
        d="M40.6244 22.9179C43.4954 22.9179 45.833 20.5824 45.833 17.7093C45.833 14.8362 43.4954 12.5007 40.6244 12.5007C37.7534 12.5007 35.4158 14.8362 35.4158 17.7093C35.4158 20.5824 37.7534 22.9179 40.6244 22.9179ZM40.6244 14.5842C42.3474 14.5842 43.7496 15.9863 43.7496 17.7093C43.7496 19.4323 42.3474 20.8345 40.6244 20.8345C38.9014 20.8345 37.4992 19.4323 37.4992 17.7093C37.4992 15.9863 38.9014 14.5842 40.6244 14.5842Z"
        fill="white" />
    <path
        d="M11.4561 22.9179C14.3292 22.9179 16.6647 20.5824 16.6647 17.7093C16.6647 14.8362 14.3292 12.5007 11.4561 12.5007C8.58304 12.5007 6.24749 14.8362 6.24749 17.7093C6.24749 20.5824 8.58304 22.9179 11.4561 22.9179ZM11.4561 14.5842C13.1791 14.5842 14.5813 15.9863 14.5813 17.7093C14.5813 19.4323 13.1791 20.8345 11.4561 20.8345C9.7331 20.8345 8.33094 19.4323 8.33094 17.7093C8.33094 15.9863 9.7331 14.5842 11.4561 14.5842Z"
        fill="white" />
    <path d="M15.0063 16.6676H36.1283V18.7511H15.0063V16.6676Z" fill="white" />
</svg>
