<svg width="18" height="21" viewBox="0 0 18 21" fill="none" xmlns="http://www.w3.org/2000/svg">
    <path
        d="M17.1818 8.59091C17.1818 15.2727 8.59091 21 8.59091 21C8.59091 21 0 15.2727 0 8.59091C3.39516e-08 6.31246 0.905111 4.12733 2.51622 2.51622C4.12733 0.905111 6.31246 0 8.59091 0C10.8694 0 13.0545 0.905111 14.6656 2.51622C16.2767 4.12733 17.1818 6.31246 17.1818 8.59091Z"
        fill="#212634" />
    <path
        d="M8.59092 11.4545C10.1725 11.4545 11.4546 10.1725 11.4546 8.59091C11.4546 7.00937 10.1725 5.72727 8.59092 5.72727C7.00938 5.72727 5.72729 7.00937 5.72729 8.59091C5.72729 10.1725 7.00938 11.4545 8.59092 11.4545Z"
        fill="white" />
</svg>
