<svg width="41" height="44" viewBox="0 0 41 44" fill="none" xmlns="http://www.w3.org/2000/svg">
    <path
        d="M8 15C8 13.8954 8.89543 13 10 13H30C31.1046 13 32 13.8954 32 15V37C32 38.1046 31.1046 39 30 39H24.5413C23.8887 39 23.2771 39.3184 22.9028 39.8531L21.5317 41.8119C20.7663 42.9052 19.1652 42.9565 18.3315 41.9143L16.6005 39.7506C16.2209 39.2762 15.6463 39 15.0388 39H10C8.89543 39 8 38.1046 8 37V15Z"
        fill="#30C58F" />
    <path
        d="M5.18262 6.14453H2.2041L1.53516 8H0.568359L3.2832 0.890625H4.10352L6.82324 8H5.86133L5.18262 6.14453ZM2.4873 5.37305H4.9043L3.69336 2.04785L2.4873 5.37305ZM9.1377 6.77441L10.4463 2.7168H11.3691L9.47461 8H8.78613L6.87207 2.7168H7.79492L9.1377 6.77441ZM15.4219 8C15.3698 7.89583 15.3275 7.71029 15.2949 7.44336C14.875 7.87956 14.3737 8.09766 13.791 8.09766C13.2702 8.09766 12.8421 7.95117 12.5068 7.6582C12.1748 7.36198 12.0088 6.98763 12.0088 6.53516C12.0088 5.98503 12.2171 5.55859 12.6338 5.25586C13.0537 4.94987 13.6429 4.79688 14.4014 4.79688H15.2803V4.38184C15.2803 4.06608 15.1859 3.81543 14.9971 3.62988C14.8083 3.44108 14.5299 3.34668 14.1621 3.34668C13.8398 3.34668 13.5697 3.42806 13.3516 3.59082C13.1335 3.75358 13.0244 3.95052 13.0244 4.18164H12.1162C12.1162 3.91797 12.209 3.66406 12.3945 3.41992C12.5833 3.17253 12.8372 2.97721 13.1562 2.83398C13.4785 2.69076 13.8317 2.61914 14.2158 2.61914C14.8245 2.61914 15.3014 2.77214 15.6465 3.07812C15.9915 3.38086 16.1706 3.79915 16.1836 4.33301V6.76465C16.1836 7.24967 16.2454 7.63542 16.3691 7.92188V8H15.4219ZM13.9229 7.31152C14.2061 7.31152 14.4746 7.23828 14.7285 7.0918C14.9824 6.94531 15.1663 6.75488 15.2803 6.52051V5.43652H14.5723C13.4655 5.43652 12.9121 5.76042 12.9121 6.4082C12.9121 6.69141 13.0065 6.91276 13.1953 7.07227C13.3841 7.23177 13.6266 7.31152 13.9229 7.31152ZM18.5811 8H17.6777V2.7168H18.5811V8ZM17.6045 1.31543C17.6045 1.16895 17.6484 1.04525 17.7363 0.944336C17.8275 0.843424 17.9609 0.792969 18.1367 0.792969C18.3125 0.792969 18.446 0.843424 18.5371 0.944336C18.6283 1.04525 18.6738 1.16895 18.6738 1.31543C18.6738 1.46191 18.6283 1.58398 18.5371 1.68164C18.446 1.7793 18.3125 1.82812 18.1367 1.82812C17.9609 1.82812 17.8275 1.7793 17.7363 1.68164C17.6484 1.58398 17.6045 1.46191 17.6045 1.31543ZM21.0127 8H20.1094V0.5H21.0127V8ZM25.7246 8C25.6725 7.89583 25.6302 7.71029 25.5977 7.44336C25.1777 7.87956 24.6764 8.09766 24.0938 8.09766C23.5729 8.09766 23.1449 7.95117 22.8096 7.6582C22.4775 7.36198 22.3115 6.98763 22.3115 6.53516C22.3115 5.98503 22.5199 5.55859 22.9365 5.25586C23.3564 4.94987 23.9456 4.79688 24.7041 4.79688H25.583V4.38184C25.583 4.06608 25.4886 3.81543 25.2998 3.62988C25.111 3.44108 24.8327 3.34668 24.4648 3.34668C24.1426 3.34668 23.8724 3.42806 23.6543 3.59082C23.4362 3.75358 23.3271 3.95052 23.3271 4.18164H22.4189C22.4189 3.91797 22.5117 3.66406 22.6973 3.41992C22.8861 3.17253 23.14 2.97721 23.459 2.83398C23.7812 2.69076 24.1344 2.61914 24.5186 2.61914C25.1273 2.61914 25.6042 2.77214 25.9492 3.07812C26.2943 3.38086 26.4733 3.79915 26.4863 4.33301V6.76465C26.4863 7.24967 26.5482 7.63542 26.6719 7.92188V8H25.7246ZM24.2256 7.31152C24.5088 7.31152 24.7773 7.23828 25.0312 7.0918C25.2852 6.94531 25.4691 6.75488 25.583 6.52051V5.43652H24.875C23.7682 5.43652 23.2148 5.76042 23.2148 6.4082C23.2148 6.69141 23.3092 6.91276 23.498 7.07227C23.6868 7.23177 23.9294 7.31152 24.2256 7.31152ZM32.375 5.41699C32.375 6.22428 32.1895 6.8737 31.8184 7.36523C31.4473 7.85352 30.9492 8.09766 30.3242 8.09766C29.6569 8.09766 29.141 7.86165 28.7764 7.38965L28.7324 8H27.9023V0.5H28.8057V3.29785C29.1702 2.84538 29.6732 2.61914 30.3145 2.61914C30.9557 2.61914 31.4587 2.86165 31.8232 3.34668C32.1911 3.83171 32.375 4.49577 32.375 5.33887V5.41699ZM31.4717 5.31445C31.4717 4.69922 31.3529 4.22396 31.1152 3.88867C30.8776 3.55339 30.5358 3.38574 30.0898 3.38574C29.4941 3.38574 29.0661 3.66243 28.8057 4.21582V6.50098C29.0824 7.05436 29.5137 7.33105 30.0996 7.33105C30.5326 7.33105 30.8695 7.16341 31.1104 6.82812C31.3512 6.49284 31.4717 5.98828 31.4717 5.31445ZM34.499 8H33.5957V0.5H34.499V8ZM38.1416 8.09766C37.4255 8.09766 36.8428 7.86328 36.3936 7.39453C35.9443 6.92253 35.7197 6.29264 35.7197 5.50488V5.33887C35.7197 4.81478 35.819 4.34766 36.0176 3.9375C36.2194 3.52409 36.4993 3.20182 36.8574 2.9707C37.2188 2.73633 37.6094 2.61914 38.0293 2.61914C38.7161 2.61914 39.25 2.84538 39.6309 3.29785C40.0117 3.75033 40.2021 4.39811 40.2021 5.24121V5.61719H36.623C36.6361 6.13802 36.7874 6.55957 37.0771 6.88184C37.3701 7.20085 37.7412 7.36035 38.1904 7.36035C38.5094 7.36035 38.7796 7.29525 39.001 7.16504C39.2223 7.03483 39.416 6.8623 39.582 6.64746L40.1338 7.07715C39.6911 7.75749 39.027 8.09766 38.1416 8.09766ZM38.0293 3.36133C37.6647 3.36133 37.3587 3.49479 37.1113 3.76172C36.8639 4.02539 36.7109 4.39648 36.6523 4.875H39.2988V4.80664C39.2728 4.34766 39.1491 3.99284 38.9277 3.74219C38.7064 3.48828 38.4069 3.36133 38.0293 3.36133Z"
        fill="#E8DFDD" />
    <path d="M16.5 26L23 18L21 25L24.5 26L16.5 34.5L19.5 27.5L16.5 26Z" fill="white" />
</svg>
