<svg width="14" height="15" viewBox="0 0 14 15" fill="none" xmlns="http://www.w3.org/2000/svg">
    <path
        d="M6.16673 1.25589C6.56229 0.65971 7.43771 0.65971 7.83327 1.25589L9.56834 3.87095C9.70122 4.07122 9.90177 4.21693 10.1333 4.28142L13.1565 5.12347C13.8458 5.31544 14.1163 6.14801 13.6715 6.70844L11.7206 9.16669C11.5712 9.35495 11.4946 9.59072 11.5048 9.83084L11.6382 12.9663C11.6686 13.6811 10.9604 14.1957 10.29 13.9459L7.34916 12.8501C7.12395 12.7662 6.87605 12.7662 6.65084 12.8501L3.71004 13.9459C3.0396 14.1957 2.33137 13.6811 2.36178 12.9663L2.49518 9.83084C2.50539 9.59072 2.42879 9.35495 2.27938 9.16669L0.328473 6.70844C-0.116291 6.14801 0.154229 5.31544 0.843462 5.12347L3.8667 4.28142C4.09823 4.21693 4.29878 4.07122 4.43166 3.87095L6.16673 1.25589Z"
        fill="#FFA724" />
</svg>
