<svg width="26" height="34" viewBox="0 0 26 34" fill="none" xmlns="http://www.w3.org/2000/svg">
    <path
        d="M0 2.16666C0 0.970048 0.97005 0 2.16667 0H23.8333C25.03 0 26 0.97005 26 2.16667V26C26 27.1966 25.03 28.1667 23.8333 28.1667H17.9198C17.2127 28.1667 16.5502 28.5116 16.1448 29.0908L14.6593 31.2129C13.8302 32.3973 12.0956 32.4529 11.1924 31.3239L9.31719 28.9798C8.90602 28.4659 8.28351 28.1667 7.62531 28.1667H2.16667C0.97005 28.1667 0 27.1966 0 26V2.16666Z"
        fill="#30C58F" />
    <path
        d="M9.20831 14.0833L16.25 5.41666L14.0833 13L17.875 14.0833L9.20831 23.2917L12.4583 15.7083L9.20831 14.0833Z"
        fill="white" />
</svg>
